<svg xmlns="http://www.w3.org/2000/svg" xmlns:xlink="http://www.w3.org/1999/xlink" viewBox="0,0,256,256" width="32px" height="32px"><g fill="#ffffff" fill-rule="nonzero" stroke="none" stroke-width="1" stroke-linecap="butt" stroke-linejoin="miter" stroke-miterlimit="10" stroke-dasharray="" stroke-dashoffset="0" font-family="none" font-weight="none" font-size="none" text-anchor="none" style="mix-blend-mode: normal"><g transform="scale(5.33333,5.33333)"><path d="M12.5,6c-3.57194,0 -6.5,2.92806 -6.5,6.5v23c0,3.57194 2.92806,6.5 6.5,6.5h23c3.57194,0 6.5,-2.92806 6.5,-6.5v-23c0,-3.57194 -2.92806,-6.5 -6.5,-6.5zM12.5,9h23c1.95006,0 3.5,1.54994 3.5,3.5v23c0,1.95006 -1.54994,3.5 -3.5,3.5h-23c-1.95006,0 -3.5,-1.54994 -3.5,-3.5v-23c0,-1.95006 1.54994,-3.5 3.5,-3.5zM13.82813,14l7.73633,11.05664l-7.74219,8.94336h2.04297l6.60352,-7.64844l5.35156,7.64844h6.4375l-8.23242,-11.76562l7.11133,-8.23437h-2l-6.01367,6.94336l-4.85742,-6.94336zM16.93555,15.69531h2.5625l11.65234,16.60938h-2.5625z"></path></g></g></svg>